Patient4_TMGait_0pt2_02_right_14_EMG.mot
version=1
nRows=36
nColumns=33
inDegrees=no
endheader
time	1LAddLong	2LGlutMax	3LGlutMed	4LIliopsoas	5LSemiMemb	6LBicFemLong	7LRecFem	8LVastMed	9LVastLat	10LGasMed	11LTibAnt	12lTibPost	13LPeroneusLong	14LSol	15LExtDigLong	16LFlexDigLong	17RAddLong	18RGlutMax	19RGlutMed	20RIliopsoas	21RSemiMemb	22RBicFemLong	23RRecFem	24RVastMed	25RVastLat	26RGasMed	27RTibAnt	28RTibPost	29RPeroneusLong	30RSol	31RExtDigLong	32RFlexDigLong
32.52	0.030212	0.065155	0.020447	-0.017853	0.043793	-0.051422	-0.098724	0.011597	-0.084534	0.002289	0.061951	-0.01358	-0.078735	-0.022278	-0.074768	-0.04715	0.000763	0.11139	0.18875	-0.033722	-0.020905	0.015106	-0.11688	-0.12222	-0.10422	-0.015259	0.11978	-0.007935	0.39505	0.29129	-0.005188	-0.022125
32.521	0.017395	0.070648	0.025635	-0.013275	0.069733	0.000458	-0.089264	0.012054	-0.054626	-0.005341	0.048065	-0.003357	-0.065155	-0.017548	-0.075989	-0.035858	0.002136	0.061798	-0.22232	0.024414	-0.024414	0.018005	-0.20966	-0.20371	0.085144	-0.010681	0.006714	-0.001984	0.39078	0.25848	-0.003052	-0.019684
32.522	0.028992	0.042725	0.04364	0.008087	0.036621	-0.03891	-0.09903	-0.006104	-0.023346	-0.000305	0.018005	-0.005798	-0.033417	-0.001984	-0.091705	-0.031433	0.002747	0.090179	-0.093231	-0.075378	-0.021667	0.023041	-0.14206	-0.22705	0.14664	-0.005188	-0.047302	-0.003815	0.31708	0.2179	-0.005798	-0.018921
32.523	0.024872	0.015869	0.005798	0.013275	0.0177	0.011139	-0.077972	-0.02533	0.004883	0.011597	0.087128	-0.00824	-0.025177	-0.018616	0.26382	-0.032501	0.011139	0.066376	-0.028992	-0.072479	-0.027161	0.006104	-0.20309	-0.17212	0.11429	-0.007629	-0.055389	-0.002289	0.29037	0.12344	-0.002441	-0.015564
32.524	0.001221	0.027618	-0.031586	0.005188	-0.068512	0.16357	-0.042877	-0.029449	0.035706	-0.010529	0.058899	-0.007019	0.009308	-0.087891	0.12024	-0.029297	-0.007782	0.06546	0.10513	-0.054321	-0.012817	0.055695	-0.43716	0.031433	0.1265	-0.00824	-0.023651	0.007935	0.10651	0.085449	-0.001678	-0.01297
32.525	-0.007629	0.008545	-0.031433	0	-0.13489	0.20477	-0.000305	-0.035248	0.014648	-0.017242	0.013885	-0.001068	0.043182	-0.13977	-0.018005	-0.03418	-0.015259	0.11917	0.076447	0.024872	-0.002594	0.056915	-0.43015	0.31189	-0.065308	-0.004578	0.075989	-0.001984	-0.074005	0.089874	-0.002747	-0.020599
32.526	-0.013123	0.024109	-0.025482	-0.007629	-0.12314	0.22049	0.038452	-0.021362	-0.007172	-0.00061	0.022888	0.000305	0.046539	-0.1442	-0.018311	-0.030365	-0.001678	0.07431	-0.15137	0.056152	-0.012054	0.040894	-0.26779	0.18921	-0.38818	-0.011139	0.14954	-0.001678	-0.11887	0.065155	-0.004272	-0.02121
32.527	-0.02121	-0.010681	0.0177	0.028229	-0.11749	0.13855	-0.004883	-0.00824	-0.007782	0.025787	-0.027771	-0.002899	-0.007629	-0.097809	-0.014801	-0.027924	0.021973	0.050812	-0.20004	0.05188	-0.03006	0.014038	-0.049591	0.052032	-0.63171	-0.000153	0.16205	-0.001526	-0.11383	0.048828	-0.001984	-0.024109
32.528	-0.007477	-0.015411	0.021057	0.021515	-0.074463	-0.015564	-0.051575	-0.015106	0.029907	0.030823	-0.010834	-0.005188	-0.03952	-0.059052	-0.003052	-0.023956	0.004578	0.061798	-0.079651	0.050201	-0.014648	0.022888	-0.071869	0.00473	-0.32562	0.001984	0.19012	-0.005493	-0.038757	-0.01236	-0.007782	-0.014496
32.529	0.009155	-0.017242	0.032349	0.015717	-0.023651	-0.1384	-0.080872	-0.016022	0.039978	-0.001526	-0.014496	0.003815	-0.001984	-0.042419	-0.00946	-0.019836	0.007629	0.062561	0.037537	0.009918	-0.009003	0.023804	-0.16846	0.010529	-0.066376	-0.003052	0.03479	-0.004272	0.074768	-0.001984	-0.001221	-0.018005
32.53	0.018005	-0.019989	0.027924	-0.000763	0.018616	-0.17029	-0.087433	-0.010681	0.020294	-0.019073	-0.029907	0.006409	0.058594	-0.080719	0.00061	-0.03067	0.010223	0.022583	-0.14435	-0.025177	-0.004578	0.029907	-0.071411	0.003662	0.052795	0	-0.11459	-0.002747	0.13184	-0.017242	-0.002136	-0.014191
32.531	0.040283	-0.018768	-0.031128	0.003967	0.097198	-0.12634	-0.12054	-0.015106	0.098114	-0.027924	-0.032654	0.002441	0.097351	-0.10101	0.012054	-0.030518	0.020294	-0.001068	-0.069427	-0.081787	-0.019531	0.035858	-0.10468	0.007477	0.10696	-0.005951	-0.031433	-0.002899	-0.079193	0.007782	-0.002441	-0.016785
32.532	0.039978	0.002747	-0.060272	-0.005188	0.15533	-0.088196	-0.1181	-0.009308	0.13947	0.001068	-0.027771	0.007782	0.091248	-0.096741	0.016327	-0.028076	0.010223	-0.040436	0.001526	-0.10849	-0.005493	0.011292	-0.11139	-0.018768	0.063324	-0.005188	0.04837	-0.001221	0.014648	-0.007019	-0.002289	-0.019379
32.533	0.036316	0.011749	-0.055847	-0.015259	0.15152	-0.05249	-0.10071	-0.011444	0.15091	0.024719	-0.031281	0.012512	0.068207	-0.085907	0.014496	-0.021515	0.01297	-0.023651	0.040741	-0.083771	-0.010376	0.02594	-0.063019	-0.054169	-0.000153	0	0.04425	-0.003967	0.007172	-0.053864	-0.00061	-0.022278
32.534	0.031128	-0.019684	-0.17334	0.008392	0.11169	-0.061798	-0.089722	-0.015869	0.25101	0.025787	-0.031891	0.01358	0.069885	-0.041199	0.01709	-0.014954	0.006866	0.029755	0.017853	-0.074921	-0.01236	0.018158	-0.11154	-0.078735	-0.073242	0.000916	0.070648	-0.003204	-0.42923	-0.046539	0.002289	-0.021362
32.535	0.016632	0.001068	-0.11093	0.004883	0.074005	-0.005188	-0.071106	-0.009918	0.20416	0.017395	-0.026093	0.020294	0.087585	-0.050659	0.030518	-0.012512	0.007629	0.02655	-0.093231	-0.060883	-0.013428	0.009155	-0.15884	-0.077209	-0.1059	-0.003967	0.073547	-0.000916	-0.17136	-0.055237	0.002594	-0.019531
32.536	0.015259	0.031738	0.11093	0.00351	0.035553	-0.005341	-0.13489	-0.003662	0.003052	0.012665	0.001678	0.017395	0.097198	-0.037842	-0.017853	-0.00946	0.009308	0.00824	-0.095062	-0.08667	-0.010223	0.013428	-0.11398	-0.052185	-0.050964	-0.001221	0.085144	-0.002289	-0.058289	-0.010071	-0.000305	-0.019836
32.537	0.009308	-0.005188	0.084381	0.014038	0.00473	-0.000305	-0.16342	0.001678	-0.17273	0.007477	0.014038	0.020905	0.079498	-0.047455	0.25681	-0.008392	0.001068	0.007782	0.02182	-0.003662	-0.011139	0.016022	-0.003204	-0.041199	0.00885	-0.002136	0.082397	0.009308	-0.050964	-0.035858	0.001678	-0.022125
32.538	-0.027771	-0.038757	0.042572	-0.013885	-0.017548	0.08728	-0.12741	0.011139	-0.15381	0.015411	-0.012512	0.02121	0.079346	-0.05188	0.57098	-0.007629	0.007782	-0.007172	-0.025482	0.068665	-0.006409	0.027466	0.049286	-0.017242	0.054169	0.003357	0.10193	-0.002747	-0.063019	-0.060425	0.000153	-0.025482
32.539	-0.041199	-0.062408	0.11871	-0.012207	-0.085449	0.16327	-0.10544	0.013428	-0.050964	0.004578	0.016174	0.015106	0.074615	-0.021973	-0.14801	-0.003052	0.002899	0.054626	0.001373	0.22675	-0.007782	0.02655	0.10223	-0.073242	0.068359	-0.005341	0.078583	-0.001984	-0.068512	-0.056458	0	-0.022278
32.54	-0.067902	0.001678	0.11185	0.001526	-0.11566	0.18158	-0.076294	0.00351	-0.054321	0.018311	-0.009918	0.022125	0.050354	0.018311	-0.34775	0.007172	-0.00351	0.014343	-0.046387	0.22766	-0.003204	0.019836	0.14084	-0.073242	0.041962	-0.00824	0.033569	-0.003204	-0.034637	-0.063171	-0.000458	-0.023041
32.541	-0.070038	-0.047302	0.076599	0.027008	-0.086365	0.16007	-0.050354	0.004883	-0.024109	0.019226	-0.059357	0.021362	0.027161	0.018921	-0.13092	-0.000763	0.005035	0.048523	-0.04715	0.091553	-0.021057	0.028687	0.22964	-0.095673	0.000916	-0.006409	0.070496	0.000458	0.014343	-0.066681	-0.001526	-0.02243
32.542	-0.04425	-0.023041	0.055542	0.018616	-0.1088	0.046692	-0.091705	0.000916	0.10773	0.028381	0.002289	0.016022	0.029755	0.006714	-0.085754	0.012054	-0.004272	0.043182	-0.067291	-0.051575	-0.009003	0.025482	0.007324	-0.12665	-0.00473	-0.010223	0.17319	-0.004425	0.003662	-0.079193	-0.000763	-0.011902
32.543	0.025482	-0.009308	0.091248	0.026245	-0.091553	-0.12604	-0.1619	-0.00473	0.15411	0.000916	0.095978	0.014496	0.03006	-0.040588	-0.10651	0.016022	-0.016937	-0.01709	-0.012817	-0.10407	0.004578	0.03418	-0.43945	-0.09964	-0.036926	-0.007629	0.085754	-0.00061	-0.064697	-0.069733	-0.002441	-0.007477
32.544	0.077667	-0.014648	0.081177	0.007324	0.12299	-0.21942	-0.18188	-0.006866	0.11581	-0.019226	0.049286	0.016174	-0.000916	-0.044861	-0.075226	0.034485	-0.015106	0.017853	0.068359	-0.1329	0.003052	0.03006	-0.52124	-0.043335	-0.010986	-0.003052	-0.24735	-0.001984	-0.12192	-0.097961	0.007324	-0.006561
32.545	0.077972	-0.012512	0.051727	-0.015564	0.15991	-0.14481	-0.13351	-0.013123	0.12283	0.003662	0.050659	0.027313	-0.016937	-0.029297	-0.085144	0.053253	-0.002289	0.056915	-0.042877	-0.027161	-0.016174	0.009003	-0.24445	0.054321	0.007477	-0.003204	-0.20798	-0.000763	-0.043182	-0.12146	-0.004578	-0.015259
32.546	0.066376	0.010071	0.042572	0.010834	0.1358	-0.034027	-0.059967	-0.013123	0.11276	0.030823	0.042419	0.021362	-0.037537	-0.034637	-0.0737	0.056	-0.008087	0.035095	-0.097809	0.044861	-0.014801	0.018158	-0.34714	0.061951	-0.021973	0.002747	0.21561	-0.002441	0.17242	-0.17075	-0.003815	-0.004883
32.547	0.055237	0.007477	0.007477	0.011902	0.11627	0.030212	-0.070038	-0.013275	-0.014191	0.025024	0.027313	0.013733	-0.012817	-0.023499	-0.077667	0.054626	-0.014191	0.020905	-0.092468	0.10513	-0.005951	0.030975	-0.48263	0.095825	0.012817	0.003357	0.3389	-0.000458	-0.46799	-0.18646	-0.002441	-0.015869
32.548	0.058899	0.024261	0.011749	0.00824	0.068359	0.078888	-0.022125	-0.011292	-0.22064	0.016785	0.007019	0.026703	0.007172	-0.024719	0.11002	0.044403	-0.010681	0.019684	-0.059662	0.18906	-0.007324	0.005188	-0.38193	0.1033	0.19226	0.002441	0.12253	-0.000305	-0.12711	-0.16388	-0.002441	-0.019073
32.549	0.032349	0.049591	0.030518	0.018005	0.022125	0.13367	0.0737	-0.006104	-0.26062	0.018158	0.000153	0.017395	0.041351	-0.005646	0.17761	0.053864	0.002747	0.020294	-0.036469	0.12451	-0.016022	0.003815	-0.26916	0.057678	0.16388	-0.002747	0.041199	-0.001831	-0.70313	-0.1001	-0.005035	-0.018158
32.55	0.039673	0.05127	-0.018005	0.003204	-0.014954	0.093994	0.043945	-0.006409	-0.17303	0.021057	-0.00412	0.012665	0.046997	-0.022888	-0.033264	0.047913	-0.003967	0.038147	0.006866	0.010376	-0.019836	0.009003	-0.24033	0.016937	0.087891	-0.00061	0.14374	0.000916	-0.51285	0.012817	-0.001831	-0.020752
32.551	0.029602	0.033875	-0.046997	-0.010071	0.00824	0.055389	0.054474	0.000153	-0.1384	0.019684	-0.007477	0.0177	0.027008	-0.028992	-0.12253	0.044403	0.005493	0.017395	0.056152	-0.002289	-0.024109	0.008087	-0.21347	-0.009766	0.039673	-0.000916	0.14069	-0.001831	0.82336	0.026703	-0.002136	-0.023346
32.552	0.010529	0.03006	-0.018921	-0.015259	0.006104	0.002594	0.03418	0.005341	-0.015411	0.011139	0.02121	0.016632	-0.030975	-0.032654	-0.09201	0.029602	0.007477	0.036621	0.099182	0.041504	-0.020752	0.020142	-0.224	0.004272	0.039825	0.001068	0.18799	-0.003357	-0.31403	0.014191	-0.001678	-0.014801
32.553	-0.000763	0.019226	-0.068207	-0.001678	0.001984	-0.057678	0.016632	0.007935	-0.032654	-0.016632	0.033264	0.006866	-0.029144	-0.020142	0.006409	0.035553	0.004578	-0.000916	0.009155	0.10407	-0.02655	0.024872	-0.19836	-0.073395	0.039673	0.003967	0.20416	0.000305	-0.29251	-0.12192	-0.005188	-0.02182
32.554	-0.010529	0.029449	0.025787	0.023193	-0.016022	-0.044098	-0.033722	0.015106	-0.063934	-0.011597	0.016479	0.010986	0.018463	-0.011292	0.022888	0.02655	0.001373	-0.023499	-0.16037	0.074005	-0.030212	0.017853	-0.21179	-0.010376	0.028687	-0.000153	0.028381	-0.000458	0.60364	-0.1152	-0.001221	-0.024109
32.555	-0.019226	-0.006714	-0.019226	0.001221	-0.046082	0.016174	-0.17181	0.021057	-0.12207	0.019226	0.004272	0.001984	-0.002289	-0.003967	0.010986	0.025787	0.000153	-0.011597	-0.018768	0.039673	-0.037689	0.028381	-0.17548	-0.027924	0.036163	0.000916	-0.056458	-0.002289	0.24704	0.062561	-0.002441	-0.009766
